<svg width="46" height="83" viewBox="0 0 46 83" fill="none" xmlns="http://www.w3.org/2000/svg">
<path d="M23.7464 67.6662C20.3838 67.6662 17.3859 67.0476 14.7528 65.8104C12.1357 64.5732 10.0578 62.868 8.51918 60.695C6.98059 58.5219 6.17957 56.0316 6.11612 53.2241H16.109C16.2201 55.1116 17.0131 56.6423 18.4883 57.8161C19.9634 58.9898 21.7161 59.5767 23.7464 59.5767C25.3643 59.5767 26.7919 59.2198 28.0291 58.506C29.2822 57.7764 30.2577 56.7692 30.9556 55.4844C31.6694 54.1837 32.0263 52.6927 32.0263 51.0114C32.0263 49.2983 31.6615 47.7914 30.9318 46.4908C30.218 45.1901 29.2267 44.175 27.9577 43.4453C26.6888 42.7157 25.2375 42.3429 23.6037 42.3271C22.1761 42.3271 20.7882 42.6205 19.44 43.2074C18.1076 43.7943 17.0687 44.5953 16.3232 45.6104L7.163 43.9688L9.47088 18.2727H39.2592V26.6953H17.9648L16.7038 38.9009H16.9893C17.8459 37.6954 19.1386 36.6961 20.8675 35.9031C22.5965 35.11 24.5316 34.7134 26.6729 34.7134C29.6074 34.7134 32.2246 35.4034 34.5245 36.7834C36.8245 38.1634 38.6406 40.0588 39.973 42.4698C41.3054 44.8649 41.9637 47.6249 41.9478 50.7496C41.9637 54.033 41.2023 56.9516 39.6637 59.5053C38.141 62.0432 36.0076 64.0418 33.2635 65.5011C30.5353 66.9445 27.3629 67.6662 23.7464 67.6662Z" fill="#111639"/>
<path d="M21.7464 65.6662C18.3838 65.6662 15.3859 65.0476 12.7528 63.8104C10.1357 62.5732 8.05777 60.868 6.51918 58.695C4.98059 56.5219 4.17957 54.0316 4.11612 51.2241H14.109C14.2201 53.1116 15.0131 54.6423 16.4883 55.8161C17.9634 56.9898 19.7161 57.5767 21.7464 57.5767C23.3643 57.5767 24.7919 57.2198 26.0291 56.506C27.2822 55.7764 28.2577 54.7692 28.9556 53.4844C29.6694 52.1837 30.0263 50.6927 30.0263 49.0114C30.0263 47.2983 29.6615 45.7914 28.9318 44.4908C28.218 43.1901 27.2267 42.175 25.9577 41.4453C24.6888 40.7157 23.2375 40.3429 21.6037 40.3271C20.1761 40.3271 18.7882 40.6205 17.44 41.2074C16.1076 41.7943 15.0687 42.5953 14.3232 43.6104L5.163 41.9688L7.47088 16.2727H37.2592V24.6953H15.9648L14.7038 36.9009H14.9893C15.8459 35.6954 17.1386 34.6961 18.8675 33.9031C20.5965 33.11 22.5316 32.7134 24.6729 32.7134C27.6074 32.7134 30.2246 33.4034 32.5245 34.7834C34.8245 36.1634 36.6406 38.0588 37.973 40.4698C39.3054 42.8649 39.9637 45.6249 39.9478 48.7496C39.9637 52.033 39.2023 54.9516 37.6637 57.5053C36.141 60.0432 34.0076 62.0418 31.2635 63.5011C28.5353 64.9445 25.3629 65.6662 21.7464 65.6662Z" fill="white"/>
</svg>
