<svg width="54" height="66" viewBox="0 0 54 66" fill="none" xmlns="http://www.w3.org/2000/svg">
<path d="M10.9409 22.8746C10.1592 22.8746 10.1592 23.6563 9.37744 23.6563C9.37744 22.8746 10.1592 22.8746 10.9409 22.8746Z" fill="url(#paint0_angular_85_39)"/>
<path d="M45.3388 16.6177V24.4348C44.5571 24.4348 44.5571 23.6531 43.7754 23.6531C42.212 22.8714 40.6485 22.8714 39.0851 22.8714H36.7398V16.6175C35.9581 11.1451 32.0495 7.23457 26.5753 8.01668C22.6667 8.7984 18.7582 11.9253 18.7582 16.6175V22.8714H16.413C14.8495 22.8714 13.2861 22.8714 11.7226 23.6531C10.9409 23.6531 10.9409 24.4348 10.1592 24.4348V16.6177V13.4907C11.7226 7.2368 15.6315 2.54461 21.1053 0.981371C23.4505 0.199653 25.0139 0.199659 27.3592 0.199659C35.958 -1.36378 44.5572 6.45564 45.3388 16.6177Z" fill="url(#paint1_angular_85_39)"/>
<path d="M53.9446 37.7323V49.458C53.9446 58.0588 46.909 65.0944 38.3083 65.0944H15.6364C7.03557 65.0944 0 58.0588 0 49.458V37.7303C0 31.4763 3.12692 26.0025 8.60078 23.6572C9.3825 23.6572 9.3825 22.8755 10.1642 22.8755C11.7277 22.0938 13.2911 22.0938 14.8546 22.0938H37.5265C39.0899 22.0938 40.6534 22.0938 42.2168 22.8755C42.9985 22.8755 42.9985 23.6572 43.7802 23.6572C50.0342 26.0043 53.9446 31.4763 53.9446 37.7323Z" fill="url(#paint2_angular_85_39)"/>
<defs>
<radialGradient id="paint0_angular_85_39" cx="0" cy="0" r="1" gradientUnits="userSpaceOnUse" gradientTransform="translate(10.1592 23.2654) scale(0.781719 0.390856)">
<stop offset="0.14" stop-color="#EEF4E1"/>
<stop offset="0.28" stop-color="#FAFCFE"/>
<stop offset="0.42" stop-color="#E2C1F9"/>
<stop offset="0.57" stop-color="#BFD1F9"/>
<stop offset="0.71" stop-color="#FAFCFE"/>
<stop offset="0.85" stop-color="#BAE4E2"/>
<stop offset="0.927722" stop-color="#B6D0F7"/>
<stop offset="1" stop-color="#8C6BE3"/>
</radialGradient>
<radialGradient id="paint1_angular_85_39" cx="0" cy="0" r="1" gradientUnits="userSpaceOnUse" gradientTransform="translate(27.7491 12.2174) scale(17.5899 12.2174)">
<stop offset="0.14" stop-color="#EEF4E1"/>
<stop offset="0.28" stop-color="#FAFCFE"/>
<stop offset="0.42" stop-color="#E2C1F9"/>
<stop offset="0.57" stop-color="#BFD1F9"/>
<stop offset="0.71" stop-color="#FAFCFE"/>
<stop offset="0.85" stop-color="#BAE4E2"/>
<stop offset="0.927722" stop-color="#B6D0F7"/>
<stop offset="1" stop-color="#8C6BE3"/>
</radialGradient>
<radialGradient id="paint2_angular_85_39" cx="0" cy="0" r="1" gradientUnits="userSpaceOnUse" gradientTransform="translate(26.9724 43.5941) scale(26.9724 21.5003)">
<stop offset="0.14" stop-color="#EEF4E1"/>
<stop offset="0.28" stop-color="#FAFCFE"/>
<stop offset="0.42" stop-color="#E2C1F9"/>
<stop offset="0.57" stop-color="#BFD1F9"/>
<stop offset="0.71" stop-color="#FAFCFE"/>
<stop offset="0.85" stop-color="#BAE4E2"/>
<stop offset="0.927722" stop-color="#B6D0F7"/>
<stop offset="1" stop-color="#8C6BE3"/>
</radialGradient>
</defs>
</svg>
