<svg width="47" height="83" viewBox="0 0 47 83" fill="none" xmlns="http://www.w3.org/2000/svg">
<path d="M23.9606 67.6662C20.4076 67.6662 17.2431 67.0555 14.4673 65.8342C11.7074 64.5969 9.5264 62.8997 7.92436 60.7425C6.33819 58.5695 5.52131 56.0633 5.47372 53.2241H15.8473C15.9107 54.4137 16.2994 55.4606 17.0131 56.3647C17.7428 57.253 18.7103 57.9429 19.9158 58.4347C21.1213 58.9264 22.4775 59.1722 23.9844 59.1722C25.5547 59.1722 26.9426 58.8946 28.1481 58.3395C29.3536 57.7843 30.2973 57.015 30.9794 56.0316C31.6615 55.0482 32.0025 53.9141 32.0025 52.6293C32.0025 51.3286 31.6377 50.1786 30.908 49.1793C30.1942 48.1642 29.1632 47.3711 27.815 46.8001C26.4826 46.229 24.8964 45.9435 23.0565 45.9435H18.5121V38.3775H23.0565C24.6109 38.3775 25.983 38.1078 27.1726 37.5685C28.3781 37.0292 29.3139 36.2837 29.9801 35.332C30.6463 34.3645 30.9794 33.2383 30.9794 31.9535C30.9794 30.7321 30.686 29.6615 30.0991 28.7415C29.5281 27.8056 28.7191 27.076 27.6722 26.5526C26.6412 26.0291 25.4357 25.7674 24.0558 25.7674C22.6599 25.7674 21.383 26.0212 20.2251 26.5288C19.0672 27.0205 18.1393 27.7263 17.4414 28.6463C16.7435 29.5663 16.3707 30.6449 16.3232 31.8821H6.44922C6.4968 29.0746 7.29782 26.6001 8.85227 24.4588C10.4067 22.3175 12.5005 20.6441 15.1335 19.4386C17.7824 18.2172 20.7724 17.6065 24.1033 17.6065C27.466 17.6065 30.4084 18.2172 32.9304 19.4386C35.4524 20.6599 37.4113 22.3095 38.8072 24.3874C40.2189 26.4495 40.9168 28.7653 40.9009 31.3349C40.9168 34.0631 40.0682 36.3393 38.3551 38.1634C36.6579 39.9875 34.4452 41.1454 31.717 41.6371V42.0178C35.3017 42.4777 38.0299 43.7229 39.9016 45.7532C41.7892 47.7676 42.725 50.2897 42.7092 53.3192C42.725 56.0951 41.924 58.5616 40.3061 60.7188C38.7041 62.8759 36.4914 64.5732 33.668 65.8104C30.8446 67.0476 27.6088 67.6662 23.9606 67.6662Z" fill="#111639"/>
<path d="M21.9606 65.6662C18.4076 65.6662 15.2431 65.0555 12.4673 63.8342C9.70739 62.5969 7.5264 60.8997 5.92436 58.7425C4.33819 56.5695 3.52131 54.0633 3.47372 51.2241H13.8473C13.9107 52.4137 14.2994 53.4606 15.0131 54.3647C15.7428 55.253 16.7103 55.9429 17.9158 56.4347C19.1213 56.9264 20.4775 57.1722 21.9844 57.1722C23.5547 57.1722 24.9426 56.8946 26.1481 56.3395C27.3536 55.7843 28.2973 55.015 28.9794 54.0316C29.6615 53.0482 30.0025 51.9141 30.0025 50.6293C30.0025 49.3286 29.6377 48.1786 28.908 47.1793C28.1942 46.1642 27.1632 45.3711 25.815 44.8001C24.4826 44.229 22.8964 43.9435 21.0565 43.9435H16.5121V36.3775H21.0565C22.6109 36.3775 23.983 36.1078 25.1726 35.5685C26.3781 35.0292 27.3139 34.2837 27.9801 33.332C28.6463 32.3645 28.9794 31.2383 28.9794 29.9535C28.9794 28.7321 28.686 27.6615 28.0991 26.7415C27.5281 25.8056 26.7191 25.076 25.6722 24.5526C24.6412 24.0291 23.4357 23.7674 22.0558 23.7674C20.6599 23.7674 19.383 24.0212 18.2251 24.5288C17.0672 25.0205 16.1393 25.7263 15.4414 26.6463C14.7435 27.5663 14.3707 28.6449 14.3232 29.8821H4.44922C4.4968 27.0746 5.29782 24.6001 6.85227 22.4588C8.40672 20.3175 10.5005 18.6441 13.1335 17.4386C15.7824 16.2172 18.7724 15.6065 22.1033 15.6065C25.466 15.6065 28.4084 16.2172 30.9304 17.4386C33.4524 18.6599 35.4113 20.3095 36.8072 22.3874C38.2189 24.4495 38.9168 26.7653 38.9009 29.3349C38.9168 32.0631 38.0682 34.3393 36.3551 36.1634C34.6579 37.9875 32.4452 39.1454 29.717 39.6371V40.0178C33.3017 40.4777 36.0299 41.7229 37.9016 43.7532C39.7892 45.7676 40.725 48.2897 40.7092 51.3192C40.725 54.0951 39.924 56.5616 38.3061 58.7188C36.7041 60.8759 34.4914 62.5732 31.668 63.8104C28.8446 65.0476 25.6088 65.6662 21.9606 65.6662Z" fill="white"/>
</svg>
