<svg width="45" height="83" viewBox="0 0 45 83" fill="none" xmlns="http://www.w3.org/2000/svg">
<path d="M5.94957 67V59.5767L23.2944 43.5167C24.7695 42.0891 26.0067 40.8043 27.006 39.6623C28.0212 38.5202 28.7905 37.402 29.3139 36.3075C29.8374 35.1972 30.0991 33.9996 30.0991 32.7148C30.0991 31.2873 29.7739 30.058 29.1236 29.027C28.4732 27.9801 27.585 27.1791 26.4588 26.6239C25.3326 26.0529 24.0558 25.7674 22.6282 25.7674C21.1372 25.7674 19.8365 26.0688 18.7262 26.6715C17.6159 27.2743 16.7594 28.1387 16.1566 29.2649C15.5539 30.3911 15.2525 31.7314 15.2525 33.2859H5.47372C5.47372 30.0977 6.19543 27.3298 7.63885 24.9822C9.08227 22.6347 11.1046 20.8185 13.706 19.5337C16.3073 18.2489 19.3052 17.6065 22.6996 17.6065C26.1892 17.6065 29.2267 18.2251 31.8121 19.4624C34.4135 20.6837 36.4358 22.3809 37.8793 24.554C39.3227 26.727 40.0444 29.2173 40.0444 32.0249C40.0444 33.8648 39.6796 35.681 38.9499 37.4734C38.2362 39.2657 36.9593 41.2564 35.1193 43.4453C33.2794 45.6184 30.686 48.2276 27.3391 51.2731L20.2251 58.2443V58.5774H40.6868V67H5.94957Z" fill="#111639"/>
<path d="M3.94957 65V57.5767L21.2944 41.5167C22.7695 40.0891 24.0067 38.8043 25.006 37.6623C26.0212 36.5202 26.7905 35.402 27.3139 34.3075C27.8374 33.1972 28.0991 31.9996 28.0991 30.7148C28.0991 29.2873 27.7739 28.058 27.1236 27.027C26.4732 25.9801 25.585 25.1791 24.4588 24.6239C23.3326 24.0529 22.0558 23.7674 20.6282 23.7674C19.1372 23.7674 17.8365 24.0688 16.7262 24.6715C15.6159 25.2743 14.7594 26.1387 14.1566 27.2649C13.5539 28.3911 13.2525 29.7314 13.2525 31.2859H3.47372C3.47372 28.0977 4.19543 25.3298 5.63885 22.9822C7.08227 20.6347 9.10464 18.8185 11.706 17.5337C14.3073 16.2489 17.3052 15.6065 20.6996 15.6065C24.1892 15.6065 27.2267 16.2251 29.8121 17.4624C32.4135 18.6837 34.4358 20.3809 35.8793 22.554C37.3227 24.727 38.0444 27.2173 38.0444 30.0249C38.0444 31.8648 37.6796 33.681 36.9499 35.4734C36.2362 37.2657 34.9593 39.2564 33.1193 41.4453C31.2794 43.6184 28.686 46.2276 25.3391 49.2731L18.2251 56.2443V56.5774H38.6868V65H3.94957Z" fill="white"/>
</svg>
